<svg width="255" height="89" viewBox="0 0 255 89" fill="none" xmlns="http://www.w3.org/2000/svg">
<path d="M170.565 65.0108C172.848 63.0114 174.334 60.2543 174.767 57.2136L178.916 28.1355C179.211 26.0705 178.58 23.9485 177.19 22.3296C175.772 20.6777 173.711 19.7204 171.57 19.7204H153.616C151.011 19.7204 148.523 20.6467 146.597 22.3337C144.717 23.9805 143.49 26.2488 143.126 28.7514L138.777 58.6582C138.476 60.7253 139.106 62.8518 140.498 64.4732C141.914 66.1226 143.972 67.0779 146.109 67.0779H165.013C167.074 67.0779 169.041 66.3452 170.565 65.0108ZM125.102 58.4067L129.859 24.9191C130.42 20.9684 132.343 17.383 135.3 14.7748L138.279 12.1462C141.324 9.45876 145.269 7.98213 149.401 7.98213H174.899C180.056 7.98213 185.026 10.2789 188.456 14.2489C191.844 18.1686 193.385 23.3195 192.672 28.3337L187.85 62.2207C187.283 66.2095 185.327 69.8243 182.323 72.4376L179.689 74.7283C176.655 77.368 172.746 78.8162 168.654 78.8162H142.928C137.747 78.8162 132.756 76.4971 129.325 72.4956L129.272 72.4336C125.917 68.521 124.393 63.3955 125.102 58.4067Z" fill="black"/>
<path d="M0 23.3754H24.9796L17.1488 88.9341L32 76.5L42.105 3.05176e-05L0 23.3754Z" fill="black"/>
<path d="M114.5 33.5C106.563 70.2036 32.407 73.9272 32.407 73.9272L17.1484 88.9342C65.7681 88.9342 113.273 69.3347 120.5 40C129.098 5.1028 102.295 8.06822 102.295 8.06822C115.929 9.13072 117.271 20.6886 114.5 33.5Z" fill="black"/>
<path d="M96.2171 19.9436H79.6313C76.4484 19.9436 72.0252 21.8786 71.3712 26.9146L69.4683 41.2052H87.6603C96.5845 41.2052 99.7298 40.3068 102.223 35.1087C102.223 35.1087 109.082 19.9446 96.2298 19.9436C96.2253 19.9436 96.2217 19.9436 96.2171 19.9436Z" fill="black"/>
<path d="M108.582 48.0624C103.423 52.7367 97.603 53.1691 92.4216 53.1691L67.7795 52.9562L65.4248 69.2727C81.5157 65.5822 99.4602 59.0289 109.255 47.472C109.036 47.6641 108.812 47.8602 108.582 48.0624Z" fill="black"/>
<path d="M99.2631 0.950804L85.4299 0.935576C66.9183 0.935576 51.242 3.24807 47.8685 28.4456C46.3467 39.8129 43.4438 61.8144 32.4072 73.9276C32.4072 73.9276 40.049 73.6217 50.7232 72.0298L57.3426 25.0137C58.7293 15.1647 67.0331 7.98228 77.0335 7.98228H100.623C101.204 7.98228 101.781 8.01533 102.355 8.07427C102.335 8.07224 102.316 8.06968 102.296 8.06816C102.296 8.06816 127.007 8.18097 119.453 41.6427C124.565 25.8201 126.703 0.937609 100.401 0.935576C100.026 0.935576 99.6493 0.940641 99.2631 0.950804Z" fill="black"/>
<path d="M102.223 35.1087C99.7293 40.3068 96.5845 41.2052 87.6597 41.2052H69.4677L71.3707 26.9146C72.0246 21.8785 76.4479 19.9436 79.6308 19.9436H96.2166C109.088 19.9334 102.223 35.1087 102.223 35.1087ZM100.623 7.98226H77.0327C67.0333 7.98226 58.729 15.1646 57.3423 25.0137L50.7229 72.0302C48.8936 72.3031 47.1564 72.5368 45.5283 72.7391V72.7406C51.4104 72.0104 58.7574 70.8483 66.481 69.0252C66.1283 69.1085 65.7752 69.1923 65.4246 69.2726L67.7797 52.9566L92.4214 53.169C97.6028 53.169 103.423 52.7366 108.581 48.0629C108.812 47.8606 109.036 47.664 109.255 47.4719C112.509 43.633 114.869 39.2448 115.955 34.222C118.726 21.4111 115.929 9.13012 102.295 8.06813C102.319 8.06966 102.341 8.07322 102.364 8.07525C101.788 8.0158 101.207 7.98226 100.623 7.98226Z" fill="white"/>
<path d="M242.646 29.1309C242.646 29.1309 261.472 28.2249 252.644 14.1508L252.346 13.8083C249.13 10.1158 244.489 7.98214 239.676 7.98214H223.261C218.183 7.98214 213.332 9.78396 209.572 13.0675C205.848 16.3195 203.433 20.8169 202.749 25.7732L202.241 29.4516C201.595 34.1289 203.039 38.9261 206.193 42.5831L206.268 42.67C209.486 46.4002 214.151 48.5597 218.994 48.5597H235.176C236.555 48.5597 237.882 49.1781 238.792 50.2452L238.802 50.2568C239.692 51.299 240.092 52.6623 239.899 53.9875L238.865 61.0586C238.622 62.7263 237.804 64.237 236.55 65.3345C235.266 66.46 233.606 67.0779 231.869 67.0779H215.894C214.515 67.0779 213.187 66.4585 212.277 65.3914C211.383 64.3432 210.983 62.9702 211.185 61.6389L211.771 57.768H198.211L197.761 61.9224C197.052 66.6541 198.663 69.2197 201.861 72.9265C205.078 76.6566 209.744 78.8162 214.586 78.8162H231.904C237.018 78.8162 241.901 76.9905 245.672 73.6673C249.321 70.4529 251.702 66.0378 252.413 61.1694L253.169 55.9931C253.857 51.2797 252.417 46.4301 249.234 42.7396L249.21 42.7117C245.992 38.981 241.327 36.8214 236.484 36.8214H220.302C218.923 36.8214 217.595 36.2025 216.685 35.1355L216.664 35.1111C215.782 34.0765 215.38 32.7249 215.564 31.4084L216.378 25.5918C216.607 23.9556 217.406 22.4714 218.636 21.3987C219.879 20.3154 221.482 19.7204 223.159 19.7204H238.419C239.798 19.7204 241.126 20.3393 242.036 21.4064L242.071 21.4475C242.945 22.4719 243.347 23.8078 243.175 25.1137L242.646 29.1309Z" fill="black"/>
</svg>
